<svg width="20" height="20" viewBox="0 0 20 20" fill="none" xmlns="http://www.w3.org/2000/svg">
<path d="M6.45833 18.3333C6.28124 18.3333 6.13281 18.2734 6.01302 18.1536C5.89322 18.0338 5.83333 17.8854 5.83333 17.7083V3.62499C5.83333 3.44791 5.89322 3.29947 6.01302 3.17968C6.13281 3.05989 6.28124 2.99999 6.45833 2.99999H8.33333V1.66666H11.6667V2.99999H13.5417C13.7187 2.99999 13.8672 3.05989 13.987 3.17968C14.1068 3.29947 14.1667 3.44791 14.1667 3.62499V17.7083C14.1667 17.8854 14.1068 18.0338 13.987 18.1536C13.8672 18.2734 13.7187 18.3333 13.5417 18.3333H6.45833ZM7.08333 9.74999H12.9167V4.24999H7.08333V9.74999Z" fill="#515151"/>
</svg>
