<svg width="44" height="44" viewBox="0 0 44 44" fill="none" xmlns="http://www.w3.org/2000/svg">
<g id="facebook 1">
<path id="Vector" d="M43.9982 22.1356C43.9982 9.90936 34.1491 0 21.9991 0C9.84908 0 0 9.90936 0 22.1356C0 33.1812 8.045 42.338 18.5614 43.9982V28.5328H12.9769V22.1337H18.5614V17.2584C18.5614 11.7097 21.8469 8.64579 26.8705 8.64579C29.2777 8.64579 31.795 9.07743 31.795 9.07743V14.5246H29.0229C26.2911 14.5246 25.4386 16.2309 25.4386 17.9815V22.1356H31.5401L30.5648 28.5346H25.4386V44C35.955 42.3398 44 33.1831 44 22.1356H43.9982Z" fill="#4267B2"/>
</g>
</svg>
