<svg width="48" height="48" viewBox="0 0 48 48" fill="none" xmlns="http://www.w3.org/2000/svg">
<g id="whatsapp 1">
<path id="Vector" d="M13.1692 40.3692L13.9077 40.7385C16.9846 42.5846 20.4308 43.4462 23.8769 43.4462C34.7077 43.4462 43.5692 34.5846 43.5692 23.7538C43.5692 18.5846 41.4769 13.5385 37.7846 9.84615C34.0923 6.15385 29.1692 4.06154 23.8769 4.06154C13.0462 4.06154 4.18462 12.9231 4.30769 23.8769C4.30769 27.5692 5.41539 31.1385 7.26154 34.2154L7.75385 34.9539L5.78462 42.2154L13.1692 40.3692Z" fill="#00E676"/>
<path id="Vector_2" d="M39.8769 7.87692C35.6923 3.56923 29.9077 1.23077 24 1.23077C11.4462 1.23077 1.35385 11.4461 1.47693 23.8769C1.47693 27.8154 2.58462 31.6308 4.43077 35.0769L1.23077 46.7692L13.1692 43.6923C16.4923 45.5385 20.1846 46.4 23.8769 46.4C36.3077 46.4 46.4 36.1846 46.4 23.7538C46.4 17.7231 44.0615 12.0615 39.8769 7.87692ZM24 42.5846C20.6769 42.5846 17.3539 41.7231 14.5231 40L13.7846 39.6308L6.64616 41.4769L8.49231 34.4615L8 33.7231C2.58462 24.9846 5.16924 13.4154 14.0308 8C22.8923 2.58461 34.3385 5.16923 39.7539 14.0308C45.1692 22.8923 42.5846 34.3385 33.7231 39.7538C30.8923 41.6 27.4462 42.5846 24 42.5846ZM34.8308 28.9231L33.4769 28.3077C33.4769 28.3077 31.5077 27.4461 30.2769 26.8308C30.1539 26.8308 30.0308 26.7077 29.9077 26.7077C29.5385 26.7077 29.2923 26.8308 29.0462 26.9538C29.0462 26.9538 28.9231 27.0769 27.2 29.0462C27.0769 29.2923 26.8308 29.4154 26.5846 29.4154H26.4615C26.3385 29.4154 26.0923 29.2923 25.9692 29.1692L25.3539 28.9231C24 28.3077 22.7692 27.5692 21.7846 26.5846C21.5385 26.3385 21.1692 26.0923 20.9231 25.8461C20.0615 24.9846 19.2 24 18.5846 22.8923L18.4615 22.6461C18.3385 22.5231 18.3385 22.4 18.2154 22.1538C18.2154 21.9077 18.2154 21.6615 18.3385 21.5385C18.3385 21.5385 18.8308 20.9231 19.2 20.5538C19.4462 20.3077 19.5692 19.9385 19.8154 19.6923C20.0615 19.3231 20.1846 18.8308 20.0615 18.4615C19.9385 17.8461 18.4615 14.5231 18.0923 13.7846C17.8462 13.4154 17.6 13.2923 17.2308 13.1692H15.8769C15.6308 13.1692 15.3846 13.2923 15.1385 13.2923L15.0154 13.4154C14.7692 13.5385 14.5231 13.7846 14.2769 13.9077C14.0308 14.1538 13.9077 14.4 13.6615 14.6461C12.8 15.7538 12.3077 17.1077 12.3077 18.4615C12.3077 19.4461 12.5539 20.4308 12.9231 21.2923L13.0462 21.6615C14.1539 24 15.6308 26.0923 17.6 27.9385L18.0923 28.4308C18.4615 28.8 18.8308 29.0461 19.0769 29.4154C21.6615 31.6308 24.6154 33.2308 27.9385 34.0923C28.3077 34.2154 28.8 34.2154 29.1692 34.3385H30.4C31.0154 34.3385 31.7539 34.0923 32.2462 33.8461C32.6154 33.6 32.8615 33.6 33.1077 33.3538L33.3539 33.1077C33.6 32.8615 33.8462 32.7385 34.0923 32.4923C34.3385 32.2461 34.5846 32 34.7077 31.7538C34.9539 31.2615 35.0769 30.6461 35.2 30.0308V29.1692C35.2 29.1692 35.0769 29.0462 34.8308 28.9231Z" fill="white"/>
</g>
</svg>
